HIERARCHY
ROOT Hips
{
	OFFSET 54.879601 -18.508512 86.312500
	CHANNELS 6 Xposition Yposition Zposition Xrotation Yrotation Zrotation
	JOINT spine
	{
		OFFSET 0.000000 -0.393702 6.846367
		CHANNELS 3 Xrotation Yrotation Zrotation
		JOINT spine1
		{
			OFFSET 0.000000 -0.000002 9.496208
			CHANNELS 3 Xrotation Yrotation Zrotation
			JOINT spine2
			{
				OFFSET 0.000000 -0.000002 9.099091
				CHANNELS 3 Xrotation Yrotation Zrotation
				JOINT Neck
				{
					OFFSET 0.000000 -1.113785 23.361206
					CHANNELS 3 Xrotation Yrotation Zrotation
					JOINT Head
					{
						OFFSET 0.000000 0.000000 7.058014
						CHANNELS 3 Xrotation Yrotation Zrotation
						End Site
						{
							OFFSET 0.000000 5.634187 17.084396
						}
					}
				}
				JOINT RightShoulder
				{
					OFFSET -3.831360 0.533491 9.826309
					CHANNELS 3 Xrotation Yrotation Zrotation
					JOINT RightArm
					{
						OFFSET 0.000000 -0.000002 12.888092
						CHANNELS 3 Xrotation Yrotation Zrotation
						JOINT RightArmRoll
						{
							OFFSET 0.000000 -0.000002 6.506165
							CHANNELS 3 Xrotation Yrotation Zrotation
							JOINT RightForeArm
							{
								OFFSET 0.000000 -0.000004 18.950104
								CHANNELS 3 Xrotation Yrotation Zrotation
								JOINT RightForeArmRoll
								{
									OFFSET 0.000000 0.000000 7.300934
									CHANNELS 3 Xrotation Yrotation Zrotation
									JOINT RightHand
									{
										OFFSET 0.000000 -0.000004 14.651398
										CHANNELS 3 Xrotation Yrotation Zrotation
										End Site
										{
											OFFSET 0.000000 0.000000 0.100006
										}
									}
								}
							}
						}
					}
				}
				JOINT LeftShoulder
				{
					OFFSET 3.831360 0.533491 9.826309
					CHANNELS 3 Xrotation Yrotation Zrotation
					JOINT LeftArm
					{
						OFFSET 0.000000 -0.000002 12.888092
						CHANNELS 3 Xrotation Yrotation Zrotation
						JOINT LeftArmRoll
						{
							OFFSET 0.000000 -0.000002 6.506165
							CHANNELS 3 Xrotation Yrotation Zrotation
							JOINT LeftForeArm
							{
								OFFSET 0.000000 -0.000004 18.950104
								CHANNELS 3 Xrotation Yrotation Zrotation
								JOINT LeftForeArmRoll
								{
									OFFSET 0.000000 0.000000 7.300919
									CHANNELS 3 Xrotation Yrotation Zrotation
									JOINT LeftHand
									{
										OFFSET 0.000000 -0.000004 14.651398
										CHANNELS 3 Xrotation Yrotation Zrotation
										End Site
										{
											OFFSET 0.000000 0.000000 0.100006
										}
									}
								}
							}
						}
					}
				}
			}
		}
	}
	JOINT RightUpLeg
	{
		OFFSET -6.068371 0.933477 -1.112778
		CHANNELS 3 Xrotation Yrotation Zrotation
		JOINT RightUpLegRoll
		{
			OFFSET 0.000000 -0.000004 17.179596
			CHANNELS 3 Xrotation Yrotation Zrotation
			JOINT RightLeg
			{
				OFFSET 0.000000 0.000004 -21.274300
				CHANNELS 3 Xrotation Yrotation Zrotation
				JOINT RightLegRoll
				{
					OFFSET 0.000000 -0.000004 21.343903
					CHANNELS 3 Xrotation Yrotation Zrotation
					JOINT RightFoot
					{
						OFFSET 0.000000 -0.000002 17.765198
						CHANNELS 3 Xrotation Yrotation Zrotation
						JOINT RightToeBase
						{
							OFFSET 0.000000 -0.000004 14.850792
							CHANNELS 3 Xrotation Yrotation Zrotation
							End Site
							{
								OFFSET 0.006294 0.829004 7.192139
							}
						}
					}
				}
			}
		}
	}
	JOINT LeftUpLeg
	{
		OFFSET 6.068371 0.933477 -1.112778
		CHANNELS 3 Xrotation Yrotation Zrotation
		JOINT LeftUpLegRoll
		{
			OFFSET 0.000000 -0.000004 17.179703
			CHANNELS 3 Xrotation Yrotation Zrotation
			JOINT LeftLeg
			{
				OFFSET 0.000000 -0.000004 21.274200
				CHANNELS 3 Xrotation Yrotation Zrotation
				JOINT LeftLegRoll
				{
					OFFSET 0.000000 -0.000002 21.541199
					CHANNELS 3 Xrotation Yrotation Zrotation
					JOINT LeftFoot
					{
						OFFSET 0.000000 -0.000004 17.567902
						CHANNELS 3 Xrotation Yrotation Zrotation
						JOINT LeftToeBase
						{
							OFFSET 0.000000 -0.000002 14.850800
							CHANNELS 3 Xrotation Yrotation Zrotation
							End Site
							{
								OFFSET -0.028210 0.829002 7.192123
							}
						}
					}
				}
			}
		}
	}
}
MOTION
Frames: 8
Frame Time: 0.041667
51.816502 -7.928053 86.632111 -2.079419 -0.389024 1.059105 -1.806628 -1.173237 0.947830 0.408930 -2.363371 1.870773 2.054205 -2.340557 1.898849 8.209513 17.164182 -4.590481 9.412941 -12.234250 -4.580000 -14.142538 -50.875081 -16.432324 -57.644918 -107.648194 -29.609013 -0.000005 0.000009 -0.000007 6.500658 -11.415392 0.012582 -0.000003 0.000005 -3.002691 -5.000242 -7.998702 0.000169 -21.957205 70.396977 25.698705 -79.149503 111.438259 47.598960 -0.000015 0.000007 0.000003 8.693670 11.538746 -1.276489 0.000008 -0.000018 2.999981 -5.000172 7.998725 -0.000150 -14.035376 -178.501106 -2.096062 -179.999991 0.000005 -1.156004 155.656569 -3.012633 -1.273115 0.000000 0.000001 0.580173 72.779586 7.036638 1.430385 25.456878 -7.354430 0.000005 -10.457540 177.680131 0.739700 -0.000004 -0.000005 -0.918698 -24.730600 0.772481 1.174368 -0.000006 -0.000003 -0.561845 76.372757 -5.896619 -4.714863 25.456878 7.352655 0.000004 
51.807800 -7.953842 86.640106 -2.073728 -0.392466 1.069439 -1.808829 -1.173196 0.948061 0.404538 -2.362732 1.871187 2.049820 -2.339923 1.899266 8.171152 17.180021 -4.583856 9.401901 -12.246184 -4.580102 -14.140492 -50.870402 -16.429638 -57.694922 -107.699700 -29.680051 -0.000006 0.000009 -0.000004 6.508739 -11.418989 0.013105 -0.000000 0.000005 -3.002689 -5.000238 -7.998702 0.000166 -21.962082 70.395085 25.704174 -79.119252 111.476078 47.617080 -0.000017 0.000007 0.000003 8.729238 11.563896 -1.278919 0.000007 -0.000018 2.999978 -5.000171 7.998724 -0.000150 -14.040386 -178.499194 -2.097380 -179.999991 0.000005 -1.156005 155.657716 -3.010843 -1.272234 -0.000002 0.000001 0.580175 72.778992 7.036496 1.430902 25.456877 -7.354430 0.000004 -10.464100 177.686101 0.746258 -0.000003 -0.000005 -0.918698 -24.723985 0.770472 1.174366 -0.000007 -0.000003 -0.561845 76.365224 -5.896624 -4.714657 25.456875 7.352655 0.000005 
51.809898 -7.947873 86.637505 -2.067778 -0.396002 1.080012 -1.811090 -1.173124 0.948280 0.400020 -2.361974 1.871585 2.045295 -2.339181 1.899665 8.132646 17.195262 -4.577145 9.390307 -12.257843 -4.580213 -14.139029 -50.866451 -16.427701 -57.747351 -107.751391 -29.753622 -0.000003 0.000009 -0.000004 6.516604 -11.422492 0.013598 0.000002 0.000004 -3.002691 -5.000240 -7.998702 0.000168 -21.965298 70.392237 25.707814 -79.084985 111.514415 47.631062 -0.000016 0.000007 0.000000 8.764796 11.588738 -1.281347 0.000006 -0.000017 2.999979 -5.000173 7.998724 -0.000152 -14.045604 -178.497295 -2.098660 -179.999991 0.000005 -1.156004 155.659137 -3.009967 -1.272760 -0.000002 0.000002 0.580178 72.778159 7.036309 1.431525 25.456878 -7.354429 0.000004 -10.471065 177.692043 0.753328 -0.000004 -0.000004 -0.918698 -24.717172 0.768227 1.174364 -0.000006 -0.000003 -0.561845 76.357355 -5.896601 -4.714668 25.456878 7.352654 0.000004 
51.808201 -7.950876 86.640213 -2.061648 -0.399602 1.090745 -1.813391 -1.173043 0.948490 0.395412 -2.361134 1.871950 2.040690 -2.338349 1.900026 8.094023 17.210007 -4.570377 9.378318 -12.269220 -4.580341 -14.137931 -50.862861 -16.426231 -57.801446 -107.803294 -29.828765 -0.000005 0.000010 -0.000006 6.524341 -11.426098 0.014073 0.000000 0.000005 -3.002689 -5.000241 -7.998701 0.000167 -21.967164 70.388596 25.709998 -79.047808 111.553306 47.641976 -0.000016 0.000005 0.000002 8.800356 11.613477 -1.283798 0.000006 -0.000019 2.999983 -5.000168 7.998725 -0.000151 -14.051021 -178.495396 -2.099906 -179.999991 0.000005 -1.156004 155.660790 -3.008176 -1.272844 -0.000001 0.000002 0.580179 72.777114 7.036138 1.432166 25.456883 -7.354430 0.000005 -10.478117 177.698983 0.760564 -0.000002 -0.000005 -0.918698 -24.709958 0.765821 1.174361 -0.000007 -0.000002 -0.561845 76.349255 -5.896560 -4.714686 25.456873 7.352654 0.000004 
51.807201 -7.950150 86.636101 -2.055419 -0.403240 1.101578 -1.815721 -1.172951 0.948694 0.390753 -2.360236 1.872322 2.036025 -2.337475 1.900395 8.055340 17.224555 -4.563553 9.366124 -12.280602 -4.580447 -14.137069 -50.859552 -16.425065 -57.856340 -107.855360 -29.904771 -0.000006 0.000010 -0.000003 6.531998 -11.429604 0.014530 -0.000003 0.000003 -3.002691 -5.000239 -7.998701 0.000166 -21.968305 70.384532 25.711359 -79.009313 111.592307 47.651525 -0.000016 0.000007 0.000003 8.835908 11.638007 -1.286251 0.000009 -0.000019 2.999980 -5.000168 7.998726 -0.000152 -14.056536 -178.493484 -2.101139 -179.999991 0.000005 -1.156004 155.662415 -3.007306 -1.272348 -0.000001 0.000001 0.580182 72.775952 7.035942 1.432906 25.456880 -7.354430 0.000004 -10.485372 177.705908 0.768002 -0.000004 -0.000005 -0.918698 -24.702738 0.763322 1.174360 -0.000007 -0.000002 -0.561845 76.340956 -5.896545 -4.714718 25.456873 7.352653 0.000005 
51.808498 -7.946783 86.634407 -2.049158 -0.406884 1.112441 -1.818060 -1.172860 0.948897 0.386083 -2.359338 1.872683 2.031360 -2.336582 1.900753 8.016621 17.238991 -4.556710 9.353861 -12.291889 -4.580571 -14.136279 -50.856322 -16.423982 -57.911384 -107.907461 -29.980928 -0.000004 0.000007 -0.000006 6.539618 -11.433214 0.014995 -0.000002 0.000006 -3.002687 -5.000238 -7.998703 0.000169 -21.969290 70.380366 25.712561 -78.970265 111.631492 47.660548 -0.000018 0.000006 0.000000 8.871473 11.662628 -1.288752 0.000002 -0.000016 2.999980 -5.000169 7.998723 -0.000155 -14.062148 -178.491585 -2.102371 -179.999991 0.000005 -1.156005 155.664150 -3.005529 -1.272434 -0.000000 0.000002 0.580186 72.774798 7.035747 1.433652 25.456880 -7.354430 0.000004 -10.492625 177.712848 0.775491 -0.000003 -0.000004 -0.918698 -24.695425 0.760800 1.174360 -0.000007 -0.000002 -0.561845 76.332651 -5.896529 -4.714750 25.456877 7.352655 0.000004 
51.808998 -7.957203 86.638100 -2.042963 -0.410507 1.123256 -1.820381 -1.172768 0.949102 0.381438 -2.358459 1.873046 2.026715 -2.335719 1.901112 7.977937 17.253533 -4.549851 9.341710 -12.303175 -4.580712 -14.135355 -50.852913 -16.422737 -57.964988 -107.959568 -30.055605 -0.000006 0.000010 -0.000002 6.547297 -11.436817 0.015460 -0.000003 0.000003 -3.002690 -5.000239 -7.998702 0.000166 -21.970586 70.376384 25.714110 -78.932139 111.670622 47.670441 -0.000014 0.000008 0.000005 8.907036 11.687237 -1.291276 0.000006 -0.000016 2.999979 -5.000174 7.998724 -0.000153 -14.067665 -178.489659 -2.103614 -179.999991 0.000005 -1.156004 155.665776 -3.004645 -1.272929 -0.000001 0.000002 0.580189 72.773644 7.035581 1.434298 25.456882 -7.354429 0.000004 -10.499789 177.718804 0.783058 -0.000004 -0.000004 -0.918698 -24.688207 0.758323 1.174359 -0.000007 -0.000003 -0.561845 76.324366 -5.896526 -4.714782 25.456875 7.352653 0.000005 
51.805099 -7.965784 86.637001 -2.036881 -0.414080 1.133953 -1.822671 -1.172697 0.949313 0.376855 -2.357630 1.873422 2.022130 -2.334907 1.901486 7.939330 17.268351 -4.543008 9.329833 -12.314742 -4.580841 -14.134153 -50.849235 -16.421143 -58.017164 -108.011683 -30.128726 -0.000003 0.000011 -0.000005 6.555076 -11.440324 0.015938 -0.000000 0.000004 -3.002691 -5.000238 -7.998703 0.000168 -21.972787 70.372921 25.716646 -78.896055 111.709397 47.682415 -0.000017 0.000009 0.000005 8.942633 11.712036 -1.293861 0.000006 -0.000017 2.999980 -5.000169 7.998725 -0.000155 -14.072981 -178.487760 -2.104869 -179.999991 0.000005 -1.156005 155.667319 -3.002863 -1.272028 -0.000000 0.000002 0.580191 72.772708 7.035401 1.434831 25.456880 -7.354429 0.000004 -10.506846 177.725743 0.790188 -0.000004 -0.000005 -0.918698 -24.681095 0.755965 1.174359 -0.000006 -0.000003 -0.561845 76.316381 -5.896481 -4.714695 25.456882 7.352654 0.000005 
